<svg width="8" height="10" viewBox="0 0 8 10" fill="none" xmlns="http://www.w3.org/2000/svg">
<path fill-rule="evenodd" clip-rule="evenodd" d="M7.45297 2.18424C7.61506 2.18424 7.75 2.31883 7.75 2.49007V2.64841C7.75 2.81549 7.61506 2.95424 7.45297 2.95424H0.547439C0.384942 2.95424 0.25 2.81549 0.25 2.64841V2.49007C0.25 2.31883 0.384942 2.18424 0.547439 2.18424H1.76232C2.0091 2.18424 2.22388 2.00883 2.27939 1.76133L2.34301 1.47717C2.44189 1.09009 2.76729 0.833008 3.1397 0.833008H4.8603C5.22866 0.833008 5.5577 1.09009 5.65293 1.45675L5.72101 1.76092C5.77612 2.00883 5.9909 2.18424 6.23809 2.18424H7.45297ZM6.83576 7.97218C6.9626 6.79011 7.18466 3.9818 7.18466 3.95347C7.19277 3.86764 7.16481 3.78639 7.10929 3.72097C7.04972 3.65972 6.97435 3.62347 6.89128 3.62347H1.11189C1.02841 3.62347 0.948982 3.65972 0.893871 3.72097C0.837949 3.78639 0.810394 3.86764 0.814446 3.95347C0.815191 3.95868 0.823159 4.0576 0.83648 4.22298C0.89566 4.95766 1.06049 7.0039 1.167 7.97218C1.24237 8.6855 1.71041 9.13383 2.38836 9.15008C2.91151 9.16217 3.45047 9.16633 4.00158 9.16633C4.52068 9.16633 5.04789 9.16217 5.58725 9.15008C6.2887 9.138 6.75634 8.69759 6.83576 7.97218Z" fill="#D14343"/>
</svg>