<svg width="12" height="12" viewBox="0 0 12 12" fill="none" xmlns="http://www.w3.org/2000/svg">
<path d="M10.2663 7.91635V9.97915C10.2659 10.3194 10.1306 10.6456 9.89001 10.8862C9.64943 11.1267 9.32324 11.2621 8.98301 11.2624H1.28329C0.943053 11.2621 0.616861 11.1267 0.376279 10.8862C0.135697 10.6456 0.000373641 10.3194 0 9.97915V5.27377C0.000373641 4.93353 0.135697 4.60734 0.376279 4.36676C0.616861 4.12618 0.943053 3.99085 1.28329 3.99048H2.88667C1.18204 5.36565 0.702899 7.42113 1.57344 9.59523C1.67972 9.8641 1.87368 10.0892 2.1239 10.234C2.37412 10.3788 2.66591 10.4349 2.95199 10.3931C3.23806 10.3513 3.50163 10.2142 3.69999 10.0038C3.89834 9.79351 4.01984 9.52236 4.04479 9.23433C4.08697 8.74767 5.73954 7.54582 7.27179 7.27432V7.81275C7.27595 8.06466 7.35366 8.30986 7.49536 8.51819C7.63707 8.72651 7.83658 8.88886 8.06935 8.98527C8.30212 9.08168 8.558 9.10795 8.8055 9.06083C9.053 9.01371 9.28133 8.89527 9.4624 8.72007L10.2663 7.91635Z" fill="white"/>
<path d="M11.7497 5.22322L8.8577 8.11523C8.79739 8.17376 8.72127 8.21335 8.63872 8.22913C8.55618 8.24491 8.47082 8.23617 8.39318 8.20401C8.31554 8.17185 8.24901 8.11767 8.2018 8.04814C8.15459 7.97862 8.12876 7.89679 8.12751 7.81276V6.37741C7.17467 6.2759 5.66454 6.741 4.5032 7.53237C3.7133 8.07135 3.23583 8.66482 3.1928 9.16026C3.18278 9.25514 3.14147 9.344 3.07538 9.41281C3.00929 9.48163 2.92217 9.52649 2.82777 9.54033C2.73336 9.55417 2.63704 9.5362 2.55398 9.48925C2.47092 9.44229 2.40584 9.36903 2.36901 9.28101C1.84475 7.95495 1.87901 6.76539 2.47095 5.74526C3.31518 4.28993 5.21757 3.31416 8.12751 2.84255V1.42392C8.12879 1.3399 8.15463 1.2581 8.20185 1.18859C8.24907 1.11909 8.31559 1.06492 8.39322 1.03276C8.47085 1.00061 8.5562 0.99188 8.63873 1.00765C8.72127 1.02341 8.79738 1.06299 8.8577 1.12149L11.7497 4.01346C11.91 4.17396 12 4.39151 12 4.61834C12 4.84517 11.91 5.06272 11.7497 5.22322Z" fill="white"/>
</svg>
